<?xml version="1.0" encoding="utf-8"?>
<!-- Generator: Adobe Illustrator 27.4.0, SVG Export Plug-In . SVG Version: 6.00 Build 0)  -->
<svg version="1.1" id="Ebene_1" xmlns="http://www.w3.org/2000/svg" xmlns:xlink="http://www.w3.org/1999/xlink" x="0px" y="0px"
	 viewBox="0 0 48 48" style="enable-background:new 0 0 48 48;" xml:space="preserve">
<style type="text/css">
	.st0{fill:none;stroke:#000000;stroke-width:1.7;stroke-linecap:round;}
	.st1{fill:none;stroke:#000000;stroke-linecap:round;}
	.st2{fill:none;stroke:#000000;stroke-width:2;stroke-linecap:round;}
</style>
<path d="M-232.5,44c-0.8,0-1.4-0.3-2-0.8L-252,25.7c-0.2-0.2-0.4-0.5-0.5-0.8s-0.2-0.6-0.2-0.9c0-0.3,0.1-0.6,0.2-0.9
	s0.3-0.5,0.5-0.8l17.6-17.6c0.5-0.6,1.2-0.8,2-0.8s1.5,0.3,2,0.9c0.6,0.6,0.8,1.2,0.8,2c0,0.8-0.3,1.4-0.9,2L-245.6,24l15.1,15.1
	c0.6,0.6,0.8,1.2,0.8,2c0,0.8-0.3,1.4-0.8,2C-231,43.7-231.7,44-232.5,44z"/>
<path d="M-303.7,43.2c-0.5-0.6-0.8-1.2-0.8-2s0.3-1.4,0.8-2l15.1-15.1l-15.1-15.2c-0.5-0.5-0.8-1.2-0.9-2c0-0.8,0.2-1.5,0.8-2
	c0.5-0.6,1.2-0.9,2-0.9c0.8,0,1.5,0.3,2,0.8l17.6,17.6c0.2,0.2,0.4,0.5,0.5,0.8s0.2,0.6,0.2,0.9c0,0.3-0.1,0.6-0.2,0.9
	s-0.3,0.5-0.5,0.8l-17.5,17.5c-0.5,0.5-1.2,0.8-2,0.8C-302.5,44-303.1,43.7-303.7,43.2z"/>
<g>
	<path d="M-189,31.1c3.2-2.6,5.6-5.1,7.2-7.5c1.6-2.4,2.5-4.6,2.5-6.7c0-1.8-0.3-3.3-1-4.6c-0.7-1.3-1.5-2.3-2.5-3.1
		c-1-0.8-2-1.4-3.1-1.7c-1.1-0.4-2.1-0.6-3.1-0.6c-1,0-2,0.2-3.1,0.5c-1.1,0.4-2.1,0.9-3.1,1.7c-1,0.8-1.8,1.8-2.4,3.1
		c-0.7,1.3-1,2.8-1,4.6c0,2,0.8,4.2,2.5,6.6C-194.6,26-192.2,28.5-189,31.1z M-189,36.2c-0.4,0-0.7-0.1-1.1-0.2
		c-0.4-0.1-0.7-0.3-1-0.5c-4.2-3.3-7.2-6.5-9.2-9.6c-2-3-3-6-3-9c0-2.4,0.4-4.5,1.3-6.3c0.9-1.8,2-3.4,3.3-4.6s2.9-2.2,4.6-2.8
		c1.7-0.6,3.4-1,5.1-1c1.7,0,3.4,0.3,5.1,1c1.7,0.6,3.3,1.6,4.6,2.8c1.4,1.2,2.5,2.8,3.3,4.6c0.9,1.8,1.3,3.9,1.3,6.3
		c0,2.9-1,5.9-3,9c-2,3-5.1,6.2-9.2,9.6c-0.3,0.2-0.6,0.4-1,0.5C-188.3,36.1-188.7,36.2-189,36.2z M-189,21c1.2,0,2.2-0.4,3.1-1.3
		c0.8-0.9,1.2-1.9,1.2-3.1c0-1.2-0.4-2.2-1.3-3.1c-0.8-0.9-1.9-1.3-3.1-1.3c-1.2,0-2.2,0.4-3.1,1.3c-0.9,0.9-1.3,1.9-1.3,3.1
		c0,1.2,0.4,2.2,1.3,3.1C-191.2,20.6-190.2,21-189,21z M-201,45.7c-0.7,0-1.2-0.2-1.7-0.7c-0.5-0.5-0.7-1-0.7-1.7
		c0-0.7,0.2-1.2,0.7-1.7s1-0.7,1.7-0.7h24c0.7,0,1.2,0.2,1.7,0.7c0.5,0.5,0.7,1,0.7,1.7c0,0.7-0.2,1.2-0.7,1.7
		c-0.5,0.5-1,0.7-1.7,0.7H-201z"/>
</g>
<g>
	<path d="M-135.9,34.6c0.6,0,1.1-0.2,1.5-0.6c0.4-0.4,0.6-0.9,0.6-1.5v-8.5c0-0.6-0.2-1.1-0.6-1.5c-0.4-0.4-0.9-0.6-1.5-0.6
		s-1.1,0.2-1.5,0.6c-0.4,0.4-0.6,0.9-0.6,1.5v8.5c0,0.6,0.2,1.1,0.6,1.5C-137,34.4-136.5,34.6-135.9,34.6z M-136.1,19.1
		c0.7,0,1.3-0.2,1.7-0.7c0.5-0.5,0.7-1,0.7-1.7c0-0.7-0.2-1.3-0.7-1.8c-0.5-0.5-1-0.7-1.7-0.7c-0.7,0-1.3,0.2-1.7,0.7
		c-0.4,0.5-0.7,1-0.7,1.7c0,0.7,0.2,1.3,0.7,1.7S-136.8,19.1-136.1,19.1z M-136.1,45.3c-3,0-5.7-0.6-8.3-1.7
		c-2.6-1.1-4.8-2.6-6.8-4.6c-1.9-1.9-3.4-4.2-4.6-6.8c-1.1-2.6-1.7-5.3-1.7-8.3c0-3,0.6-5.7,1.7-8.3c1.1-2.6,2.6-4.8,4.5-6.7
		c1.9-1.9,4.2-3.4,6.8-4.6c2.6-1.1,5.3-1.7,8.3-1.7c3,0,5.7,0.6,8.3,1.7c2.6,1.1,4.8,2.6,6.7,4.5s3.4,4.2,4.5,6.7
		c1.1,2.6,1.7,5.4,1.7,8.3c0,3-0.6,5.7-1.7,8.3c-1.1,2.6-2.6,4.8-4.6,6.7c-1.9,1.9-4.2,3.4-6.7,4.5
		C-130.3,44.7-133.1,45.3-136.1,45.3z M-136.1,40.6c4.6,0,8.5-1.6,11.7-4.8c3.2-3.2,4.8-7.1,4.8-11.8c0-4.6-1.6-8.5-4.8-11.7
		c-3.2-3.2-7.1-4.8-11.8-4.8c-4.6,0-8.5,1.6-11.7,4.8c-3.2,3.2-4.8,7.1-4.8,11.8c0,4.6,1.6,8.5,4.8,11.7S-140.7,40.6-136.1,40.6z"/>
</g>
<g>
	<path d="M-99.1,45.3c-1.3,0-2.4-0.5-3.3-1.4c-0.9-0.9-1.4-2-1.4-3.3V10.5c0-1.3,0.5-2.4,1.4-3.4c0.9-0.9,2-1.4,3.3-1.4h2.8v-1
		c0-0.6,0.2-1,0.6-1.4s0.9-0.6,1.4-0.6c0.6,0,1,0.2,1.4,0.6c0.4,0.4,0.6,0.9,0.6,1.4v1h15.3v-1c0-0.6,0.2-1,0.6-1.4s0.9-0.6,1.4-0.6
		c0.6,0,1,0.2,1.4,0.6c0.4,0.4,0.6,0.9,0.6,1.4v1h2.8c1.3,0,2.4,0.5,3.4,1.4c0.9,0.9,1.4,2,1.4,3.4v30.1c0,1.3-0.5,2.4-1.4,3.3
		c-0.9,0.9-2,1.4-3.4,1.4H-99.1z M-99.1,40.6H-70V19.5h-29.1V40.6z M-99.1,16.5H-70v-6.1h-29.1V16.5z M-99.1,16.5v-6.1V16.5z
		 M-84.6,28.3c-0.7,0-1.2-0.2-1.6-0.7c-0.4-0.4-0.7-1-0.7-1.6c0-0.7,0.2-1.2,0.7-1.6c0.4-0.4,1-0.7,1.6-0.7c0.7,0,1.2,0.2,1.6,0.7
		c0.4,0.4,0.7,1,0.7,1.6c0,0.7-0.2,1.2-0.7,1.6C-83.4,28.1-83.9,28.3-84.6,28.3z M-92.6,28.3c-0.7,0-1.2-0.2-1.6-0.7
		c-0.4-0.4-0.7-1-0.7-1.6c0-0.7,0.2-1.2,0.7-1.6c0.4-0.4,1-0.7,1.6-0.7c0.7,0,1.2,0.2,1.6,0.7c0.4,0.4,0.7,1,0.7,1.6
		c0,0.7-0.2,1.2-0.7,1.6C-91.4,28.1-91.9,28.3-92.6,28.3z M-76.6,28.3c-0.6,0-1.1-0.2-1.6-0.7c-0.5-0.4-0.7-1-0.7-1.6
		c0-0.7,0.2-1.2,0.7-1.6c0.5-0.4,1-0.7,1.6-0.7c0.6,0,1.2,0.2,1.6,0.7c0.4,0.4,0.7,1,0.7,1.6c0,0.7-0.2,1.2-0.7,1.6
		C-75.4,28.1-75.9,28.3-76.6,28.3z M-84.6,36.3c-0.7,0-1.2-0.2-1.6-0.7c-0.4-0.5-0.7-1-0.7-1.6c0-0.6,0.2-1.2,0.7-1.6
		c0.4-0.5,1-0.7,1.6-0.7c0.7,0,1.2,0.2,1.6,0.7c0.4,0.4,0.7,1,0.7,1.6c0,0.6-0.2,1.1-0.7,1.6C-83.4,36.1-83.9,36.3-84.6,36.3z
		 M-92.6,36.3c-0.7,0-1.2-0.2-1.6-0.7c-0.4-0.5-0.7-1-0.7-1.6c0-0.6,0.2-1.2,0.7-1.6c0.4-0.5,1-0.7,1.6-0.7c0.7,0,1.2,0.2,1.6,0.7
		c0.4,0.4,0.7,1,0.7,1.6c0,0.6-0.2,1.1-0.7,1.6C-91.4,36.1-91.9,36.3-92.6,36.3z M-76.6,36.3c-0.6,0-1.1-0.2-1.6-0.7
		c-0.5-0.5-0.7-1-0.7-1.6c0-0.6,0.2-1.2,0.7-1.6c0.5-0.5,1-0.7,1.6-0.7c0.6,0,1.2,0.2,1.6,0.7c0.4,0.4,0.7,1,0.7,1.6
		c0,0.6-0.2,1.1-0.7,1.6C-75.4,36.1-75.9,36.3-76.6,36.3z"/>
</g>
<g>
	<path class="st0" d="M-43.1,21.2c0,1.6,0.6,4.5-0.2,5.8c-0.5,0.8-0.6,4.8-0.2,4.6"/>
	<path class="st0" d="M-38.7,23.2c1.1,0.1,1.2,4.2,1.2,5.2c0,0.8,0.3,1.3,0.4,2c0.2,1.4,0.5-0.4,0.8-0.8"/>
	<path class="st0" d="M-32.6,22.4c1.1,1.3,1.6,4.7,1.6,6.2c0,1,0.4,6,1.2,3.4"/>
	<path class="st0" d="M-26.2,22.8c0,2,0.6,3.7,0.8,5.6c0.1,0.7,1.2,4.8,1.2,2.8"/>
	<path class="st0" d="M-44.3,21.2c0.7,0.6,1.6,0.4,2.4,0.4c0.6,0,1,0.8,1.6,0.8c1.7,0.1,3.3,0.4,5,0.4c1.6,0,2.8-0.4,4.4-0.4
		c1.7,0,3.6,0.1,5-0.8"/>
	<path class="st0" d="M-43.9,20.3c0-1,0.4-2.2,0.9-3c0.5-1,1-1.9,2.1-2.5c0.7-0.4,1.3-0.8,2-1.1c0.3-0.2,1.5,0,1.7-0.3
		c0.2-0.2,1.6-0.2,1.9-0.2c0.6,0,1.1,0.2,1.6,0.2c2.3,0,4.4,0.5,6,2.1c0.7,0.7,1.4,1.5,1.8,2.4c0.2,0.5,1.4,2.9,0.7,3.3"/>
	<path class="st0" d="M-35.2,12.3c0-0.6,0.3-1.2,0.5-1.8c0.1-0.4,0-1,0-1.5"/>
	<path class="st0" d="M-35,9.8c0-0.8-0.2-1.5-0.2-2.4c0-0.4,0.2-0.7,0.2-1.1c0-0.3,0,0.9,0,1.2c0,0.9,0.2,1.8,0.2,2.6
		c0,1.1,0.1,1.3-1.1,1.4c-0.5,0-1,0-0.2,0c0.4,0,0.9,0,1.3,0s0.9,0,1.3,0c0.2,0,1.1,0,0.5,0c-0.2,0-2.5-0.1-2.2-0.3
		c0.5-0.3,0-2.1,0-2.7c0-0.6,0.1-1.6-0.2-2.2c-0.2-0.4-0.4-1.7-0.2-2.2c0.2-0.8,0.1,1,0.1,1.4c0,0.8,0,1.7,0,2.5
		c0,0.6,0,2.1-0.9,2.2c-0.6,0.1-1.3,0.3-1.5,1c-0.2,0.7,2.9,0,3.2-0.1c0.5-0.1,1,0,1.6,0c0.3,0-0.3-0.5-0.5-0.5"/>
	<path class="st0" d="M-36.9,12.3c0,0.2-0.2,0.4-0.2,0.6"/>
	<path class="st0" d="M-34.7,12.4c0.4,0,0.5,0.2,0,0.2c-0.4,0-0.7,0-1.1-0.1c-0.6-0.3,0.6-1,0.6-1.6"/>
	<path class="st0" d="M-45.9,32.7c2,0,4,0,6,0c1,0,2,0,2.9,0c1,0,2,0.3,3,0.3c2,0,4,0.2,6,0.2c1,0,2,0,2.9,0c0.5,0,2.2-0.7,2.4-0.3"
		/>
	<path class="st0" d="M-44.2,33.2c0,1.2-0.2,2.5-0.2,3.8c0,1.2-0.5,2.4-0.5,3.5"/>
	<path class="st0" d="M-23,33.5c0,0.7-0.3,1.3-0.3,1.9c0,0.6,0,1.2,0,1.9c0,1.2-0.6,2.4-0.6,3.6"/>
	<path class="st0" d="M-34.4,35.6c-2.2,0-5.3,1.7-5.3,4c0,0.7,0.1,1.1,0.3,1.7c0.1,0.3-0.1,0.7,0.1,1c0.2,0.2,0.4,0.4,0.4,0.7
		c0,0.3,0.9,0.6,1.1,0.7c0.3,0.2,1.4,0,1.7,0c1.1,0,1.9-0.8,2.9-1.1c1-0.2,1.9-1.2,1.9-2.3c0-0.6,0.2-0.9,0-1.5
		c-0.1-0.5-0.8-1-1.1-1.4c-0.3-0.4-0.6-0.8-1.1-1.1c-0.4-0.2-1.3-0.2-1.5-0.5"/>
	<path class="st0" d="M-36.1,39.8V40"/>
	<path class="st0" d="M-36.1,40c0-0.4,0.2-1.9,0.5-2"/>
	<path class="st0" d="M-35.8,40c0.1,0.5,1.8,0.3,2.2,0.3"/>
</g>
<g>
	<path class="st1" d="M13.1,20.2c0.9,0.1,1.8,2.3,2.4,2.9c1,1,2.2,1.8,3.5,2.5c0.6,0.3,1.2,0.2,1.6,0.9c0.4,0.7,1,0.2,1.6,0.5
		c1.1,0.5,2.9,0.2,4.1,0.2c0.6,0,2.9-0.4,3.3-0.9c0.5-0.7,3,0.1,3.8-0.1c1-0.3,1.9-1,2.7-1.7c0.9-0.9-0.2-2-0.7-2.8
		c-0.6-1-1.9-1.5-2.9-1.9c-1-0.4-1.7-1.3-2.7-1.9c-1-0.5-2.3-1.2-3.1-1.9c-0.9-0.7-1.7-1.5-2.9-1.5c-3,0-5.8,0.6-8.5,1.3
		c-1,0.3-2.5,1.3-2.8,2.2c-0.1,0.4-0.8,0.8-0.8,1.2c0,0.5,0.9,1.3,1.3,1.3"/>
	<path class="st2" d="M17.3,10.9c2,0,4.4,0.3,6.5,0.3c2.3,0,4.5,1.2,6.8,1.3c2.3,0.1,4.1,1.1,6.3,1.6c2.4,0.5,3.6,2.1,5.2,3.9
		c1.2,1.4,1.5,3.7,1.5,5.5c0,2.3,0.1,4.7,0,7.1c0,0.6-1.4,1.7-1.6,2.5c-0.2,0.8-1.4,1.7-2.2,1.7c-1.2,0-2.4,0.2-3.6,0.3
		C35,35.2,34,36,32.8,36c-2,0-4.4,0.3-6.5,0.3c-1.9,0-5.1,0.6-6.8-0.2c-2.2-1.1-4.4-1.7-6.5-2.9c-1.8-1-2.5-3-3.9-4.4
		C8.2,27.9,7.2,27,6.7,26c-0.3-0.5-0.9-0.6-1.3-0.9c-0.8-0.7-0.3-0.9-0.3-1.7c0-1.1,0.3-2.2,0.3-3.3c0-1.1-0.1-2.4,0.3-3.5
		c0.5-1,1.3-1.9,2.5-2.1c1.1-0.2,1.9-0.8,2.9-1.1c0.9-0.2,1.8-1,2.8-1c1-0.1,2-0.8,2.9-0.8"/>
	<path class="st1" d="M11.5,20.2c-1,0.1-1.3,2.3-1.9,2.9c-1,1-0.3,2.7-1,3.8"/>
	<path class="st1" d="M15.2,24c-0.2,0-0.8,3.1-0.8,3.5c-0.1,1.4-0.8,2.9-0.8,4.3"/>
	<path class="st1" d="M18.9,26.9c-0.6,1.3-0.8,3.4-0.8,4.8c0,1.6,0.5,3,0.5,4.5"/>
	<path class="st1" d="M24.8,29c0,2-0.4,4.5,0.3,6.4"/>
	<path class="st1" d="M26.1,29c1.8,0,2.3,2.8,2.7,4.1c0.3,1.1,1.1,2.1,1.3,3.2c0.2,0.8,0,1.2,0,0.1"/>
	<path class="st1" d="M30.6,28.2c0.7,0.8,1.1,2.4,1.1,3.5c0,1.1,0.5,2.1,0.5,3.2"/>
	<path class="st1" d="M34.1,26.9c0.2,1.5,1.1,2.8,1.1,4.3c0,1.4-0.3,2.6-0.3,4"/>
	<path class="st1" d="M35.4,27.7c0.4,0.1,2.1,2.5,2.3,2.9c0.5,0.8,0.7,1.6,1.1,2.4"/>
	<path class="st1" d="M31.7,17.3c0.2-1.3,2.9-1.3,3.7-1.6"/>
	<path class="st1" d="M34.6,20c1.4,0,2.6-0.5,4-0.5c1.4,0,3.5-0.8,4.8,0"/>
	<path class="st1" d="M9.6,18.4c-1.2,0-2.7,0.5-3.8,0.8c-1,0.3-1.5,1.4-1.5,2.4"/>
	<path class="st1" d="M10.1,15.5c0.4,0.1,1,0.6,1.3,0.8"/>
	<path class="st1" d="M5.9,21c0.2,1.8,2.6,3.1,3.9,4.1c1.4,1.2,3,2.1,4.5,2.9c2.8,1.6,6.1,3.6,9.6,3.6c3.6,0,7.3-0.1,10.8-0.3
		c0.8,0,1.3-0.8,2.1-0.8c0.8,0,1.2-1,1.9-1.4c0.9-0.5,1.6-1.7,2.3-2.4c0.7-0.6,0.5-1.3,0.9-2.1"/>
	<path class="st1" d="M5.6,17.6c0.3,2.5,5,5.2,7.1,6.1c2.7,1.2,5.8,2.4,8.6,2.4c1.3,0,2.4,0.4,3.5,1c1.5,0.8,3,1,4.7,1.4
		c1.6,0.3,3-0.5,4.3-1c1.6-0.7,3.3-1.3,4.9-1.9"/>
	<path class="st1" d="M13.9,28.5c2.6,2.3,6,1.7,9.2,2.4c1.5,0.3,3.1,1,4.7,1c2,0,4.6,0.3,6.3-0.8"/>
	<path class="st1" d="M28,13.6c1.5,0,4,1.9,5.2,2.8c1.6,1.3,3.4,2.4,4.9,3.8c1.4,1.4,2.1,3.1,2.6,4.9c0.2,0.5-0.7,2.2-1,2.6
		c-0.6,0.7-1.8,0.7-2.7,0.7"/>
	<path class="st1" d="M34.9,14.9c0.9,0.1,2.6,2.2,2.9,3.1c0.4,0.8,1.6,2.5,2.4,2.8"/>
	<path class="st1" d="M19.7,13.3c-3.1,0-5.5,2.2-8,3.5"/>
	<path class="st2" d="M6.4,29.6c0.7,0,0.5,0.5,0.5-0.1c0-0.3-0.1-1.6,0.5-0.9C7.6,28.7,8,29.7,8,30c0,0.7,0.3,0.5,0.7,1
		c0.7,0.7,1.4,1.4,2.1,2.1c0.3,0.3,0.8,0.5,1.2,0.7c0.5,0.3,0.6,0.7,1.1,1.1c0.9,0.7,1.5,1.1,2.7,1.1c1.1,0,1.9,0.5,2.9,0.8
		c0.5,0.1,0.7,0.5,1.2,0.5c0.5,0,1.2-0.1,1.7,0c1.1,0.2,2.5,0.5,3.6,0.5c2.1,0,4.4-0.3,6.7-0.3c0.9,0,2.3-0.5,3-1
		c0.4-0.4,1.4,0.3,1.8-0.2C37,36,38,36,37.4,36.5c-0.4,0.3-0.3,0.9-0.7,1.3c-0.2,0.2-1.1,0.3-1.4,0.3c-1.2,0-2.4,0.3-3.6,0.3
		c-2.4,0-4.6,0.3-7.1,0.3c-0.9,0-2.6,0.3-3.5-0.1c-0.8-0.4-2.1-0.7-2.9-0.9c-0.8-0.2-1.8-1.3-2.7-1.3c-1.2,0-2.5-0.6-3.6-1.1
		c-0.7-0.4-1.9-0.7-2.5-1.2c-0.4-0.4-0.4-0.7-0.9-1c-0.6-0.3-1.1-0.3-1.4-0.9c-0.2-0.3-0.8-0.9,0.1-0.4c0.6,0.4,1.3,0.6,2,0.9
		c1.2,0.6,2.9,0.9,4.3,0.9c1.6,0,3.2,0.8,4.8,0.8c1.4,0,3,0.5,4.4,0.8c1,0.2,2.2,0.8,3.2,0.8c1,0,2.7,0.2,3.6,0.6
		c1,0.4,2.2,0.1,3.2,0.5c1,0.5,2.5,0.2,3.6,0.2c1,0,1.9-0.5,2.9-0.5c0.2,0,0.9-0.7,1.1-0.5c0.3,0.3-0.7,0.6-0.7,1.1"/>
</g>
</svg>
