<?xml version="1.0" encoding="UTF-8"?>
<svg id="Ebene_1" data-name="Ebene 1" xmlns="http://www.w3.org/2000/svg" viewBox="0 0 48 48">
  <path d="m9.42,45.28c-1.3,0-2.41-.46-3.33-1.37-.92-.92-1.37-2.02-1.37-3.33V10.47c0-1.32.46-2.44,1.37-3.36.92-.93,2.02-1.39,3.33-1.39h2.8v-.95c0-.56.21-1.04.62-1.44.41-.4.89-.61,1.44-.61s1.04.2,1.44.61c.4.4.6.89.6,1.44v.95h15.3v-.95c0-.56.21-1.04.62-1.44.41-.4.89-.61,1.44-.61s1.04.2,1.44.61c.4.4.6.89.6,1.44v.95h2.8c1.32,0,2.44.46,3.36,1.39.93.93,1.39,2.05,1.39,3.36v30.1c0,1.3-.46,2.41-1.39,3.33-.93.92-2.05,1.37-3.36,1.37H9.42Zm0-4.7h29.1v-21.05H9.42v21.05Zm0-24.05h29.1v-6.05H9.42v6.05Zm0,0v-6.05,6.05Zm14.56,11.8c-.65,0-1.2-.22-1.64-.66-.44-.44-.66-.98-.66-1.64s.22-1.2.66-1.64c.44-.44.98-.66,1.64-.66s1.2.22,1.64.66c.44.44.66.98.66,1.64s-.22,1.2-.66,1.64c-.44.44-.98.66-1.64.66Zm-8,0c-.65,0-1.2-.22-1.64-.66-.44-.44-.66-.98-.66-1.64s.22-1.2.66-1.64c.44-.44.98-.66,1.64-.66s1.2.22,1.64.66c.44.44.66.98.66,1.64s-.22,1.2-.66,1.64c-.44.44-.98.66-1.64.66Zm16,0c-.6,0-1.14-.22-1.61-.66-.47-.44-.7-.98-.7-1.64s.23-1.2.69-1.64c.46-.44,1-.66,1.63-.66s1.16.22,1.61.66c.45.44.68.98.68,1.64s-.22,1.2-.66,1.64c-.44.44-.98.66-1.64.66Zm-8,8c-.65,0-1.2-.23-1.64-.69-.44-.46-.66-1-.66-1.63s.22-1.16.66-1.61c.44-.45.98-.68,1.64-.68s1.2.22,1.64.66c.44.44.66.98.66,1.64,0,.6-.22,1.14-.66,1.61-.44.47-.98.7-1.64.7Zm-8,0c-.65,0-1.2-.23-1.64-.69-.44-.46-.66-1-.66-1.63s.22-1.16.66-1.61c.44-.45.98-.68,1.64-.68s1.2.22,1.64.66c.44.44.66.98.66,1.64,0,.6-.22,1.14-.66,1.61-.44.47-.98.7-1.64.7Zm16,0c-.6,0-1.14-.23-1.61-.69-.47-.46-.7-1-.7-1.63s.23-1.16.69-1.61c.46-.45,1-.68,1.63-.68s1.16.22,1.61.66c.45.44.68.98.68,1.64,0,.6-.22,1.14-.66,1.61-.44.47-.98.7-1.64.7Z"/>
</svg>