<?xml version="1.0" encoding="UTF-8"?>
<svg id="Ebene_1" data-name="Ebene 1" xmlns="http://www.w3.org/2000/svg" viewBox="0 0 48 48">
  <path d="m34.14,10.21c.65-1.34,1.87-2.38,2.19-3.88.11-.53.16-1.09.27-1.63.14-.7.43-1.28.68-1.95.16-.43.6-.91.09-1.29-.26-.2-.59-.16-.89-.25-.34-.1-.59-.34-.89-.52-.35-.22-.51-.18-.68.26-.14.35-.15.79-.21,1.16-.13.72-.19,1.39-.45,2.08-.22.59-.42,1.21-.68,1.79-.32.69-1.24.89-1.74,1.43s-.86,1.14-1.25,1.74c-.22.34-.46.68-.6,1.06-.14.41-.25.78-.46,1.16-.29.53-.59,1.05-.93,1.54-.14.2-.23.39-.35.61-.16.3-.42.52-.56.83-.12.28-.22.59-.32.88-.15.42-.26.54-.59.83-.57.48-1.13,1.04-1.65,1.57-.58.58-1.07,1.23-1.61,1.84-.26.3-.52.64-.81.9-.13.12-.3.2-.43.32-.16.15-.25.33-.39.5-.44.53-.84,1.03-1.12,1.65-.28.63-.54,1.1-1.1,1.51-.57.42-1.06.94-1.52,1.48-.51.59-1.22.99-1.72,1.58-.37.43-1.12.54-1.67.7-.72.21-1.19.78-1.87,1.05-.57.23-1.21.26-1.58.85-.17.27-.34,1.11.1,1.13.06,0,.3-.09.39-.11.2-.03.38-.06.57-.11.3-.08.58-.14.88-.15.4-.01,1.18-.16,1.36.28.25.59-.46,1.23-.81,1.57-.4.39-.91,1.01-.65,1.61.33.75,1.12.25,1.48.87.12.2.28.57.27.81-.02.41-.46.72-.67,1.06-.37.61-.32,1.3-.92,1.77-.68.53-1.4,1.13-2.16,1.54-.74.4-.88,1.19-.62,1.96.13.38.42.52.78.6.44.1.7.35.85.81.11.34.05.69.27,1,.18.24.44.51.64.74.43.49,1.11.61,1.71.45.73-.2,1.49-.51,1.97-1.13.31-.4.45-1.01.64-1.47.11-.26.25-.53.3-.81.03-.18-.04-.5.12-.61.19.63-.01,1.42.02,2.07.02.28.21,1.15.52,1.3.4.19.87-.2,1.29.13.07.15.16.28.28.38.11.08.23.11.36.11.25.09.46.18.62.41.17.26.08.57.54.47.3-.07.4-.34.73-.23.2.07.41.36.56.51.2.21.33.31.61.42.7.28.77-.46,1.16-.91.36-.43.75-.93,1.03-1.41.13-.22.27-.41.42-.63.21-.32.19-.52.28-.87.09-.34.26-.65.33-1,.06-.31.1-.59.19-.9.15-.5.27-.99.38-1.51.12-.55.13-1.36-.28-1.81-.21-.23-.47-.44-.68-.67-.3-.31-.47-.57-.58-1-.1-.35-.19-.73-.26-1.09-.07-.36,0-.73-.05-1.09-.11-.72-.33-1.34-1.13-1.43-.25-.03-.62-.03-.86.03-.33.09-.54.34-.93.29-.38-.39.52-1.66.65-1.99.12-.32.3-.66.36-1,.06-.31.05-.59.15-.9.17-.53.39-1.04.55-1.57.2-.67.63-1.26.94-1.87.23-.45.53-.8.81-1.22.17-.26.25-.57.43-.83.42-.61.87-1.19,1.26-1.83.43-.71.85-1.44,1.35-2.1.2-.27.42-.53.61-.81.23-.34.31-.74.51-1.09.25-.44.59-.85.87-1.27.3-.44.37-.84.59-1.32.12-.26.23-.48.28-.77.04-.21-.03-.46.02-.65.09-.38.57-.57.78-.92.26-.43.37-.81.56-1.27.18-.45.22-.96.43-1.41.19-.4.31-.66.68-.89.43-.26.79-.8,1.16-1.16"/>
</svg>