<?xml version="1.0" encoding="UTF-8"?>
<svg id="Ebene_1" data-name="Ebene 1" xmlns="http://www.w3.org/2000/svg" viewBox="0 0 48 48">
  <defs>
    <style>
      .cls-1 {
        fill: none;
        stroke: #000;
        stroke-linecap: round;
        stroke-width: 1.7px;
      }
    </style>
  </defs>
  <path class="cls-1" d="m12.97,21.23c0,1.56.56,4.47-.2,5.83-.47.85-.63,4.84-.2,4.63"/>
  <path class="cls-1" d="m17.4,23.24c1.11.14,1.21,4.21,1.21,5.23,0,.82.32,1.34.4,2.01.17,1.43.54-.41.8-.8"/>
  <path class="cls-1" d="m23.43,22.44c1.12,1.26,1.61,4.65,1.61,6.24,0,1.01.36,5.97,1.21,3.42"/>
  <path class="cls-1" d="m29.87,22.84c0,1.96.6,3.75.8,5.63.07.67,1.21,4.76,1.21,2.82"/>
  <path class="cls-1" d="m11.77,21.23c.69.61,1.56.35,2.41.4.56.03,1.05.77,1.61.8,1.73.1,3.3.4,5.03.4,1.57,0,2.79-.4,4.43-.4s3.63.13,5.03-.8"/>
  <path class="cls-1" d="m12.18,20.32c0-1.02.38-2.16.85-3.02.55-.98,1.05-1.94,2.09-2.52.68-.38,1.3-.77,2.01-1.08.35-.16,1.5-.01,1.7-.27.18-.23,1.56-.23,1.86-.23.58,0,1.11.15,1.63.15,2.26,0,4.45.5,6.04,2.09.73.73,1.4,1.47,1.82,2.4.22.5,1.39,2.93.74,3.25"/>
  <path class="cls-1" d="m20.85,12.27c0-.63.32-1.18.46-1.78.1-.45,0-1.01,0-1.47"/>
  <path class="cls-1" d="m21.01,9.79c0-.81-.15-1.54-.15-2.36,0-.44.15-.73.15-1.13,0-.33,0,.94,0,1.16,0,.9.15,1.77.15,2.63,0,1.08.05,1.33-1.08,1.39-.49.03-.99,0-.23,0h2.63c.17,0,1.12,0,.54,0-.23,0-2.48-.14-2.17-.34.46-.31,0-2.14,0-2.68,0-.61.06-1.64-.23-2.17-.23-.41-.36-1.69-.22-2.16.23-.79.15,1.04.15,1.38v2.48c0,.63-.01,2.05-.85,2.24-.65.14-1.29.25-1.46,1.02-.16.7,2.85-.02,3.23-.07.51-.06,1.04.02,1.56,0,.33-.02-.26-.46-.46-.46"/>
  <path class="cls-1" d="m19.15,12.27c-.03.23-.15.38-.15.62"/>
  <path class="cls-1" d="m21.32,12.42c.42,0,.47.15,0,.15-.39,0-.73.04-1.08-.12-.64-.28.62-.97.62-1.58"/>
  <path class="cls-1" d="m10.17,32.71h8.98c.97,0,2.03.31,3.03.31,2.03,0,3.98.15,6.03.15h2.94c.46,0,2.22-.67,2.4-.31"/>
  <path class="cls-1" d="m11.87,33.17c0,1.22-.15,2.52-.15,3.79,0,1.19-.46,2.38-.46,3.48"/>
  <path class="cls-1" d="m33.08,33.48c0,.67-.31,1.26-.31,1.94v1.86c0,1.24-.62,2.44-.62,3.64"/>
  <path class="cls-1" d="m21.63,35.65c-2.15,0-5.26,1.65-5.26,4.03,0,.66.08,1.12.28,1.74.09.3-.08.72.12.97.19.24.36.39.38.7.02.32.9.57,1.12.74.28.22,1.38.03,1.75.03,1.13,0,1.88-.84,2.94-1.08.97-.22,1.94-1.25,1.94-2.25,0-.61.17-.9,0-1.54-.15-.51-.82-.99-1.14-1.4-.32-.41-.63-.83-1.09-1.08-.38-.21-1.3-.19-1.47-.54"/>
  <path class="cls-1" d="m19.92,39.83v.15"/>
  <path class="cls-1" d="m19.92,39.98c0-.36.2-1.88.46-2.01"/>
  <path class="cls-1" d="m20.23,39.98c.07.52,1.79.31,2.17.31"/>
</svg>