<?xml version="1.0" encoding="UTF-8"?>
<svg id="Ebene_1" data-name="Ebene 1" xmlns="http://www.w3.org/2000/svg" viewBox="0 0 231.39 48">
  <defs>
    <style>
      .cls-1 {
        fill: #fffefa;
      }
    </style>
  </defs>
  <g id="logo_variationen" data-name="logo variationen">
    <g>
      <g>
        <path class="cls-1" d="m81.73,36.76v-14.52l-4.62,10.21h-4.04l-4.62-10.21v14.52h-7.57V9.19h8.27l5.94,12.97,5.98-12.97h8.23v27.57h-7.57Z"/>
        <path class="cls-1" d="m93.38,38.82c.6.21,1.15.37,1.65.49.5.12.96.17,1.38.17.54,0,1-.1,1.36-.29.36-.19.65-.49.85-.89.21-.4.34-.89.39-1.46l-7.42-20.23h7.57l3.88,12.73,3.14-12.73h6.87l-6.91,22.66c-.39,1.31-1.02,2.45-1.9,3.44-.88.99-1.93,1.76-3.15,2.31s-2.52.83-3.92.83c-.65,0-1.29-.06-1.92-.18-.63-.12-1.26-.3-1.88-.56v-6.29Z"/>
        <path class="cls-1" d="m127.51,36.95c-1.79,0-3.49-.32-5.11-.95s-3.05-1.57-4.29-2.8c-1.24-1.23-2.22-2.72-2.93-4.47s-1.07-3.75-1.07-6c0-1.94.36-3.74,1.09-5.4s1.73-3.11,3.01-4.37c1.28-1.26,2.78-2.23,4.49-2.93,1.71-.7,3.56-1.05,5.55-1.05,2.49,0,4.74.54,6.76,1.61,2.02,1.07,3.52,2.54,4.5,4.41l-5.63,4.31c-.54-1.09-1.36-1.96-2.45-2.62s-2.24-.99-3.46-.99c-.91,0-1.73.18-2.49.54s-1.4.87-1.96,1.51c-.56.65-.98,1.42-1.28,2.31-.3.89-.45,1.87-.45,2.93s.16,2.07.47,2.95c.31.88.74,1.64,1.3,2.27.56.64,1.22,1.13,2,1.48.78.35,1.64.52,2.6.52,1.22,0,2.38-.3,3.49-.91,1.11-.61,2.12-1.47,3.03-2.58v7.38c-2.07,1.89-4.47,2.83-7.18,2.83Zm6.8-9.44h-5.09v-5.44h11.34v14.68h-6.25v-9.24Z"/>
        <path class="cls-1" d="m143.62,8.41h7.38v20.23c0,.75.16,1.33.49,1.73s.8.6,1.42.6c.31,0,.65-.05,1.01-.15.36-.1.7-.25,1.01-.43l.93,5.44c-.88.42-1.87.74-2.97.97-1.1.23-2.14.35-3.13.35-1.97,0-3.48-.51-4.54-1.53-1.06-1.02-1.59-2.48-1.59-4.37V8.41Z"/>
        <path class="cls-1" d="m167.62,37.15c-1.81,0-3.42-.28-4.82-.84-1.4-.56-2.57-1.33-3.51-2.31-.94-.98-1.66-2.09-2.13-3.34-.48-1.25-.72-2.56-.72-3.93s.24-2.69.72-3.95c.48-1.26,1.19-2.37,2.13-3.34.94-.97,2.12-1.73,3.51-2.29,1.4-.56,3-.84,4.82-.84s3.45.28,4.83.84c1.38.56,2.55,1.32,3.49,2.29.94.97,1.66,2.08,2.14,3.34.48,1.26.72,2.58.72,3.95s-.24,2.69-.72,3.93c-.48,1.25-1.19,2.36-2.14,3.34-.94.98-2.11,1.75-3.49,2.31-1.39.56-3,.84-4.83.84Zm-3.61-10.43c0,.87.16,1.62.47,2.26.31.63.74,1.12,1.28,1.45s1.16.5,1.86.5,1.32-.17,1.86-.5c.55-.33.97-.82,1.28-1.45.31-.63.47-1.39.47-2.26s-.15-1.62-.47-2.26c-.31-.63-.74-1.12-1.28-1.45-.54-.34-1.16-.5-1.86-.5s-1.32.17-1.86.5c-.54.33-.97.82-1.28,1.45-.31.63-.47,1.39-.47,2.26Z"/>
        <path class="cls-1" d="m194.41,37.15c-1.53,0-2.85-.3-3.96-.91-1.11-.61-1.99-1.49-2.64-2.66v3.18h-6.41V8.41h7.38v11.3c.6-1.11,1.44-1.96,2.52-2.54,1.09-.58,2.37-.87,3.84-.87,1.24,0,2.39.26,3.46.78,1.06.52,1.99,1.25,2.78,2.2s1.4,2.06,1.84,3.34c.44,1.29.66,2.68.66,4.18s-.24,2.85-.72,4.11c-.48,1.26-1.14,2.36-1.98,3.3-.84.94-1.84,1.67-2.99,2.18-1.15.51-2.41.76-3.79.76Zm-2.14-6.21c.6,0,1.14-.1,1.63-.3s.92-.48,1.28-.84c.36-.36.64-.79.84-1.29.19-.5.29-1.06.29-1.68,0-.8-.16-1.52-.49-2.18-.32-.66-.76-1.18-1.32-1.56s-1.2-.58-1.92-.58c-.52,0-1.02.12-1.52.37-.49.25-.94.59-1.34,1.02-.4.44-.72.94-.95,1.51v3.5c.23.32.49.62.76.88s.55.47.84.63c.28.16.59.29.91.37s.65.13.99.13Z"/>
        <path class="cls-1" d="m216.58,37.15c-1.79,0-3.38-.27-4.78-.82-1.4-.55-2.57-1.29-3.51-2.24s-1.66-2.03-2.16-3.25c-.49-1.22-.74-2.51-.74-3.86,0-1.93.43-3.71,1.28-5.32s2.11-2.91,3.77-3.89c1.66-.98,3.7-1.47,6.14-1.47s4.48.49,6.14,1.45c1.66.97,2.91,2.24,3.77,3.82.85,1.58,1.28,3.3,1.28,5.16,0,.38-.02.77-.06,1.17-.04.39-.09.74-.14,1.05h-14.33c.05.69.25,1.25.6,1.68.35.43.79.74,1.32.94.53.2,1.08.29,1.65.29.8,0,1.56-.18,2.27-.54.71-.36,1.18-.87,1.42-1.51l6.25,1.79c-.54,1.09-1.3,2.05-2.27,2.87-.97.83-2.12,1.48-3.44,1.96s-2.81.72-4.47.72Zm-3.49-12.62h6.76c-.08-.63-.27-1.17-.56-1.6-.3-.44-.69-.78-1.16-1.02-.48-.24-1.03-.36-1.65-.36s-1.17.12-1.65.36c-.48.24-.87.58-1.17,1.02-.3.44-.49.97-.56,1.6Z"/>
      </g>
      <path class="cls-1" d="m45.77,3.91c-1.63-1.13-3.57-1.79-5.61-1.75h-20.76c-2.11,0-4.07.66-5.67,1.77-.02.01-.04.03-.06.04-.13.09-.25.18-.37.27-.14.11-.29.23-.43.36-.36.31-.69.64-1.01,1-1.51,1.75-2.43,4.03-2.43,6.53v18.83l-5.61,9.72c-.56.97.14,2.18,1.26,2.18h35.08c2.04.04,3.98-.61,5.61-1.74,2.57-1.79,4.34-4.75,4.36-7.97V12.13c.07-3.31-1.72-6.39-4.36-8.22ZM11.9,11.8c.09-2.34,1.27-4.52,3.19-5.87h.01s.05-.04.05-.04c1.26-.88,2.74-1.34,4.29-1.34h4.55v2.04c-.15,1.2-.57,2.28-1.25,3.23-.89,1.22-1.94,1.83-3.17,1.83l-2.93.03v4.4c0,.6-.23,1.08-.7,1.45s-1.01.55-1.61.55l-2.43.04v-6.32Zm19.32,28.62l-19.58-.02h-4.84l1.57-2.72,3.53-6.11v-9.39h9.02c.43.13.8.38,1.12.76.48.58.73,1.22.73,1.94v8.11h4.61c2.12,0,3.84,1.72,3.84,3.85v3.58Zm16.52-7.2c.04,2.52-1.3,4.83-3.3,6.22v-4.57c-1.36-.2-2.41-1.38-2.41-2.81v-2.66h-8.47c-1.29,0-2.34-1.05-2.34-2.34v-5.08c0-1.02.83-1.86,1.85-1.86h.6v-2.25c0-.96.78-1.73,1.74-1.73h8.06c.96,0,1.74.77,1.74,1.73v.17h2.53v15.18Zm0-18.43c-.47-.17-.81-.62-.81-1.14v-2.8c0-.06.01-.12.02-.18h-6.1l-1.78,1.92v1.03c0,.66-.54,1.2-1.21,1.2h-1.87c-.67,0-1.21-.54-1.21-1.2v-1.75c0-.66.54-1.2,1.21-1.2h2.48v-3.6c0-.34.28-.62.61-.62h1.69v-1.9c1.61,0,2.83.74,2.83.74,2.52,1.21,4.17,3.97,4.14,6.78v2.72Z"/>
    </g>
  </g>
</svg>