<?xml version="1.0" encoding="UTF-8"?>
<svg xmlns="http://www.w3.org/2000/svg" viewBox="0 0 1350.53 594.49">
  <defs>
    <style>
      .cls-1 {
        fill: none;
        stroke: #004d80;
        stroke-linecap: square;
        stroke-miterlimit: 10;
        stroke-width: 6px;
      }

      .cls-2, .cls-3 {
        fill: #fffefa;
      }

      .cls-4 {
        fill: #8cc63f;
      }

      .cls-5 {
        fill: #1e7fcb;
      }

      .cls-3 {
        font-family: Raleway-Black, Raleway;
        font-size: 170px;
        font-weight: 800;
      }
    </style>
  </defs>
  <g id="text">
    <text class="cls-3" transform="translate(481.86 367.36)"><tspan x="0" y="0">MyGlobe</tspan></text>
  </g>
  <g id="umrandubg">
    <g>
      <path class="cls-5" d="m438.72,208.44v171.09c0,45.35-36.77,82.12-82.12,82.12h-227.34c-14.28,0-25.86-11.58-25.86-25.87v-227.34c0-27.79,13.8-52.35,34.92-67.21.15-.11.31-.22.47-.32,13.26-9.2,29.36-14.59,46.72-14.59h171.09c24.41,0,46.34,10.65,61.39,27.56.23.27.47.54.71.82.21.25.43.5.64.75,12.09,14.3,19.38,32.79,19.38,52.99Z"/>
      <path class="cls-4" d="m419.34,155.44c-.21-.25-.43-.5-.64-.75-.24-.28-.48-.55-.71-.82-15.05-16.91-36.98-27.56-61.39-27.56h-171.09c-17.36,0-33.46,5.39-46.72,14.59-.16.1-.32.21-.47.32-21.12,14.86-34.92,39.42-34.92,67.21v227.34c0,14.29,11.58,25.87,25.86,25.87h227.34c45.35,0,82.12-36.77,82.12-82.12v-171.09c0-20.2-7.29-38.69-19.38-52.99Zm-233.52,286.34c-1.66,0-3.31-.06-4.95-.19h-51.61c-3.21,0-5.81-2.62-5.81-5.82v-54.46c-.03-.69-.04-1.39-.04-2.08v-86.29l.04.04,62.25,62.41v35.54c0,17.21,13.92,31.17,31.1,31.17h9.31v17.56c0,.71.2,1.37.55,1.93.04.06.09.13.13.19h-40.97Zm232.85-62.26c0,12.54-3.69,24.51-10.57,34.67-2.29,3.47-4.95,6.74-7.96,9.75-4.65,4.66-9.9,8.49-15.58,11.42v-25.16c0-17.22-13.91-31.17-31.09-31.17h-37.31v-65.58c0-5.83-1.96-11.07-5.88-15.72-2.59-3.07-5.6-5.13-9.05-6.17h-134.12v-32.62h47.22l33.58-.58c4.87,0,9.18-1.47,12.98-4.43,3.79-2.96,5.7-6.87,5.7-11.74v-35.6l23.69-.24c9.96,0,18.51-4.94,25.64-14.81,5.55-7.7,8.94-16.41,10.17-26.18v-19.3h29.93c11.03,0,21.62,2.85,30.94,8.21,4.9,2.74,9.45,6.19,13.53,10.27,11.73,11.72,18.18,27.31,18.18,43.89v171.09Z"/>
      <g>
        <path class="cls-1" d="m123.41,292.94l.04.04,62.25,62.41v35.54c0,17.21,13.92,31.17,31.1,31.17h9.31v17.56c0,.71.2,1.37.55,1.93.04.06.09.13.13.19"/>
        <path class="cls-1" d="m384.56,435.36v-25.16c0-17.22-13.91-31.17-31.09-31.17h-37.31v-65.58c0-5.83-1.96-11.07-5.88-15.72-2.59-3.07-5.6-5.13-9.05-6.17h-134.12v-32.62h47.22l33.58-.58c4.87,0,9.18-1.47,12.98-4.43,3.79-2.96,5.7-6.87,5.7-11.74v-35.6l23.69-.24c9.96,0,18.51-4.94,25.64-14.81,5.55-7.7,8.94-16.41,10.17-26.18v-19.3"/>
      </g>
      <path class="cls-2" d="m356.61,146.37c34.22,0,62.07,27.84,62.07,62.07v171.09c0,34.22-27.84,62.07-62.07,62.07h-227.35c-3.21,0-5.81-2.61-5.81-5.81v-227.35c0-34.22,27.84-62.07,62.07-62.07h171.09m0-20.05h-171.09c-45.35,0-82.12,36.77-82.12,82.12v227.35c0,14.29,11.58,25.87,25.87,25.87h227.35c45.35,0,82.12-36.77,82.12-82.12v-171.09c0-45.35-36.77-82.12-82.12-82.12h0Z"/>
    </g>
  </g>
</svg>