<?xml version="1.0" encoding="UTF-8"?>
<svg id="Ebene_1" data-name="Ebene 1" xmlns="http://www.w3.org/2000/svg" viewBox="0 0 161.68 48">
  <defs>
    <style>
      .cls-1 {
        fill: #fffefa;
      }

      .cls-2 {
        fill: #9aceff;
      }

      .cls-3 {
        fill: #4a69bb;
      }

      .cls-4 {
        fill: #617be3;
      }
    </style>
  </defs>
  <g>
    <path class="cls-2" d="m47.25,13.62s0,20.94,0,21.02c-.02,3.22-1.78,6.18-4.36,7.96-1.63,1.13-3.57,1.79-5.61,1.75H2.21c-1.12,0-1.82-1.21-1.26-2.19l5.61-9.71V13.62c0-2.5.92-4.78,2.43-6.53.31-.36.65-.7,1.01-1.01.14-.12.28-.24.43-.35.12-.09.24-.18.37-.27.02-.01.04-.03.06-.04,1.61-1.12,3.56-1.77,5.67-1.77h20.77c2.04-.04,3.98.62,5.61,1.74,2.64,1.84,4.43,4.91,4.36,8.22Z"/>
    <path class="cls-4" d="m44.87,13.56v2.72c-.47-.17-.81-.61-.81-1.14v-2.79c0-.06,0-.12.01-.18h-6.1l-1.78,1.92v1.03c0,.66-.54,1.2-1.2,1.2h-1.88c-.66,0-1.2-.54-1.2-1.2v-1.75c0-.66.54-1.2,1.2-1.2h2.49v-3.6c0-.34.27-.61.61-.61h1.68v-1.91c1.61,0,2.83.74,2.83.74,2.52,1.21,4.17,3.97,4.15,6.78Z"/>
    <path class="cls-3" d="m44.86,19.52v15.18c.04,2.52-1.31,4.83-3.3,6.22v-4.57c-1.37-.2-2.42-1.38-2.42-2.8v-2.66h-8.47c-1.29,0-2.34-1.05-2.34-2.34v-5.08c0-1.03.83-1.86,1.86-1.86h.6v-2.25c0-.96.78-1.73,1.73-1.73h8.07c.96,0,1.73.78,1.73,1.73v.17h2.53Z"/>
    <path class="cls-3" d="m21.12,6.04v2.04c-.15,1.21-.57,2.28-1.26,3.23-.88,1.22-1.94,1.83-3.17,1.83l-2.93.03v4.4c0,.6-.24,1.09-.7,1.45-.47.37-1,.55-1.6.55l-2.43.04c0-3.48,0-6.28,0-6.32.09-2.34,1.27-4.52,3.19-5.88h0s.05-.04.05-.04c1.26-.88,2.74-1.34,4.29-1.34h4.56Z"/>
    <path class="cls-4" d="m28.34,38.33v3.58l-19.58-.02H3.93s1.57-2.72,1.57-2.72l3.52-6.1s0-4.62,0-9.39h9.02c.43.13.8.38,1.12.76.48.58.73,1.22.73,1.94v8.1h4.61c2.12,0,3.84,1.72,3.84,3.85Z"/>
    <path class="cls-2" d="m42.89,5.39c-1.62-1.13-3.57-1.79-5.61-1.74h-20.77c-5.45-.03-9.99,4.49-9.97,9.97,0,0,0,18.83,0,18.83L.94,42.16c-.56.97.14,2.19,1.26,2.19h35.08c5.24.11,9.94-4.45,9.96-9.71,0-.09,0-21.02,0-21.02.07-3.31-1.72-6.39-4.36-8.22Zm1.93,28.99c.07,4.11-3.54,7.64-7.61,7.57-3.3,0-30.85-.03-33.33-.03.98-1.7,4.06-7.03,5.09-8.82.01-.94,0-17.7,0-19.77.09-2.36,1.29-4.57,3.25-5.92,1.26-.88,2.74-1.34,4.29-1.34,1.76.26,23.02-.67,24.16.76,2.42,1.28,4.17,3.97,4.15,6.78v20.77Z"/>
  </g>
  <g>
    <path class="cls-1" d="m70.7,33.41v-8.98l-2.86,6.31h-2.5l-2.86-6.31v8.98h-4.68v-17.04h5.11l3.67,8.02,3.7-8.02h5.09v17.04h-4.68Z"/>
    <path class="cls-1" d="m77.9,34.68c.37.13.71.23,1.02.3.31.07.6.11.85.11.34,0,.62-.06.84-.18.22-.12.4-.3.53-.55.13-.25.21-.55.24-.9l-4.58-12.5h4.68l2.4,7.87,1.94-7.87h4.25l-4.27,14c-.24.81-.63,1.52-1.18,2.13-.54.61-1.19,1.09-1.94,1.43s-1.56.51-2.42.51c-.4,0-.8-.04-1.19-.11-.39-.07-.78-.19-1.16-.35v-3.89Z"/>
    <path class="cls-1" d="m99,33.53c-1.1,0-2.16-.2-3.16-.59s-1.88-.97-2.65-1.73c-.77-.76-1.37-1.68-1.81-2.76s-.66-2.32-.66-3.71c0-1.2.22-2.31.67-3.34s1.07-1.92,1.86-2.7c.79-.78,1.72-1.38,2.77-1.81,1.06-.43,2.2-.65,3.43-.65,1.54,0,2.93.33,4.18,1,1.25.66,2.18,1.57,2.78,2.72l-3.48,2.66c-.34-.67-.84-1.21-1.51-1.62s-1.38-.61-2.14-.61c-.56,0-1.07.11-1.54.34s-.87.54-1.21.94c-.34.4-.61.88-.79,1.43-.18.55-.28,1.16-.28,1.81s.1,1.28.29,1.82c.19.54.46,1.01.8,1.4.34.39.76.7,1.24.91.48.22,1.02.32,1.61.32.75,0,1.47-.19,2.16-.56.69-.38,1.31-.91,1.87-1.6v4.56c-1.28,1.17-2.76,1.75-4.44,1.75Zm4.2-5.83h-3.14v-3.36h7.01v9.07h-3.86v-5.71Z"/>
    <path class="cls-1" d="m108.96,15.89h4.56v12.5c0,.46.1.82.3,1.07s.49.37.88.37c.19,0,.4-.03.62-.1.22-.06.43-.15.62-.26l.58,3.36c-.54.26-1.16.46-1.84.6-.68.14-1.32.22-1.93.22-1.22,0-2.15-.32-2.81-.95-.66-.63-.98-1.53-.98-2.7v-14.11Z"/>
    <path class="cls-1" d="m123.79,33.65c-1.12,0-2.11-.17-2.98-.52-.86-.35-1.59-.82-2.17-1.43-.58-.61-1.02-1.29-1.32-2.06-.3-.77-.44-1.58-.44-2.43s.15-1.66.44-2.44c.3-.78.74-1.47,1.32-2.07.58-.6,1.31-1.07,2.17-1.42.86-.35,1.86-.52,2.98-.52s2.13.17,2.99.52c.86.35,1.58.82,2.16,1.42.58.6,1.02,1.29,1.32,2.07.3.78.44,1.59.44,2.44s-.15,1.66-.44,2.43c-.3.77-.74,1.46-1.32,2.06-.58.61-1.3,1.08-2.16,1.43-.86.35-1.85.52-2.99.52Zm-2.23-6.44c0,.54.1,1,.29,1.39.19.39.46.69.79.9s.72.31,1.15.31.82-.1,1.15-.31c.34-.21.6-.51.79-.9.19-.39.29-.86.29-1.39s-.1-1-.29-1.39c-.19-.39-.46-.69-.79-.9-.34-.21-.72-.31-1.15-.31s-.82.1-1.15.31c-.34.21-.6.51-.79.9-.19.39-.29.86-.29,1.39Z"/>
    <path class="cls-1" d="m140.35,33.65c-.94,0-1.76-.19-2.45-.56-.69-.38-1.23-.92-1.63-1.64v1.97h-3.96V15.89h4.56v6.98c.37-.69.89-1.21,1.56-1.57.67-.36,1.46-.54,2.38-.54.77,0,1.48.16,2.14.48.66.32,1.23.78,1.72,1.36s.87,1.27,1.14,2.07c.27.79.41,1.66.41,2.58s-.15,1.76-.44,2.54c-.3.78-.7,1.46-1.22,2.04-.52.58-1.14,1.03-1.85,1.35-.71.31-1.49.47-2.34.47Zm-1.32-3.84c.37,0,.7-.06,1.01-.18s.57-.3.79-.52c.22-.22.4-.49.52-.79.12-.31.18-.65.18-1.04,0-.49-.1-.94-.3-1.35-.2-.41-.47-.73-.82-.97s-.74-.36-1.19-.36c-.32,0-.63.08-.94.23-.3.15-.58.36-.83.63-.25.27-.44.58-.59.93v2.17c.14.2.3.38.47.54s.34.29.52.39c.18.1.36.18.56.23s.4.08.61.08Z"/>
    <path class="cls-1" d="m154.05,33.65c-1.1,0-2.09-.17-2.95-.51-.86-.34-1.59-.8-2.17-1.38s-1.03-1.25-1.33-2.01c-.3-.76-.46-1.55-.46-2.39,0-1.19.26-2.29.79-3.29s1.3-1.8,2.33-2.4c1.02-.6,2.29-.91,3.79-.91s2.77.3,3.79.9c1.02.6,1.8,1.39,2.33,2.36.53.98.79,2.04.79,3.19,0,.24-.01.48-.04.72-.02.24-.05.46-.08.65h-8.86c.03.42.16.77.37,1.04.22.27.49.46.82.58.33.12.67.18,1.02.18.5,0,.96-.11,1.4-.34.44-.22.73-.54.88-.94l3.86,1.1c-.34.67-.8,1.26-1.4,1.78-.6.51-1.31.92-2.12,1.21s-1.74.44-2.76.44Zm-2.16-7.8h4.18c-.05-.39-.16-.72-.35-.99-.18-.27-.42-.48-.72-.63-.3-.15-.64-.23-1.02-.23s-.72.08-1.02.23c-.3.15-.54.36-.72.63-.18.27-.3.6-.35.99Z"/>
  </g>
</svg>