<?xml version="1.0" encoding="UTF-8"?>
<svg id="Ebene_1" data-name="Ebene 1" xmlns="http://www.w3.org/2000/svg" viewBox="0 0 48 48">
  <path d="m24,31.13c3.16-2.6,5.56-5.1,7.2-7.5,1.63-2.41,2.45-4.63,2.45-6.66,0-1.79-.33-3.32-1-4.59s-1.48-2.29-2.45-3.07c-.97-.78-2.01-1.35-3.12-1.73-1.11-.37-2.13-.56-3.06-.56s-2,.18-3.11.55c-1.11.36-2.15.94-3.11,1.73-.97.79-1.78,1.81-2.45,3.08-.67,1.27-1,2.81-1,4.61,0,2.01.82,4.23,2.45,6.63,1.63,2.41,4.03,4.91,7.2,7.5Zm0,5.05c-.36,0-.72-.06-1.1-.18-.37-.12-.71-.29-1.01-.53-4.17-3.33-7.25-6.52-9.25-9.56-2-3.04-3-6.03-3-8.96,0-2.4.43-4.51,1.3-6.34.87-1.83,1.98-3.36,3.34-4.59s2.9-2.17,4.61-2.8c1.71-.63,3.41-.95,5.09-.95s3.38.32,5.09.95c1.71.63,3.25,1.57,4.61,2.8,1.36,1.23,2.47,2.77,3.34,4.59.87,1.83,1.3,3.94,1.3,6.34,0,2.93-1,5.92-3,8.96-2,3.04-5.08,6.23-9.25,9.56-.27.23-.6.41-.99.53-.39.12-.76.18-1.11.18Zm.03-15.15c1.21,0,2.23-.43,3.06-1.29.83-.86,1.25-1.89,1.25-3.1s-.42-2.24-1.27-3.09c-.85-.85-1.86-1.28-3.05-1.28s-2.21.43-3.08,1.29c-.87.86-1.3,1.89-1.3,3.08s.43,2.23,1.29,3.09c.86.86,1.89,1.29,3.1,1.29Zm-12.04,24.7c-.66,0-1.21-.23-1.67-.68-.45-.46-.68-1.01-.68-1.68s.23-1.22.68-1.67,1.01-.68,1.67-.68h24c.66,0,1.21.23,1.67.68.45.46.68,1.01.68,1.68s-.23,1.22-.68,1.67-1.01.68-1.67.68H12Z"/>
</svg>