<?xml version="1.0" encoding="UTF-8"?>
<svg id="Ebene_1" data-name="Ebene 1" xmlns="http://www.w3.org/2000/svg" viewBox="0 0 48 48">
  <defs>
    <style>
      .cls-1 {
        stroke-width: 2px;
      }

      .cls-1, .cls-2 {
        fill: none;
        stroke: #000;
        stroke-linecap: round;
      }
    </style>
  </defs>
  <path class="cls-2" d="m13.06,20.25c.92.11,1.76,2.25,2.4,2.93.98,1.04,2.19,1.82,3.46,2.45.61.3,1.21.19,1.6.86.38.67,1.03.22,1.6.47,1.14.51,2.87.21,4.13.21.64,0,2.94-.45,3.33-.93.53-.66,3.04.08,3.84-.15,1.05-.3,1.94-.95,2.69-1.7.85-.85-.21-1.96-.74-2.81-.61-.98-1.89-1.49-2.87-1.92-1.01-.45-1.68-1.35-2.66-1.86-1.01-.53-2.28-1.18-3.13-1.86-.87-.7-1.72-1.54-2.85-1.54-2.97,0-5.78.57-8.5,1.35-.96.27-2.55,1.26-2.82,2.23-.11.38-.78.84-.78,1.21,0,.51.87,1.33,1.33,1.33"/>
  <path class="cls-1" d="m17.32,10.93c2.01,0,4.36.27,6.52.27,2.27,0,4.5,1.2,6.79,1.33,2.28.13,4.13,1.11,6.25,1.58,2.39.53,3.61,2.13,5.25,3.95,1.22,1.36,1.54,3.72,1.54,5.51,0,2.34.14,4.72,0,7.05-.04.62-1.39,1.73-1.61,2.51-.23.8-1.37,1.74-2.25,1.74-1.19,0-2.37.2-3.59.27-1.18.07-2.21.8-3.46.8-2.01,0-4.36.27-6.52.27-1.86,0-5.13.62-6.79-.21-2.16-1.08-4.4-1.67-6.52-2.85-1.77-.99-2.53-2.99-3.86-4.39-.82-.87-1.82-1.77-2.4-2.78-.29-.5-.94-.57-1.33-.95-.77-.73-.27-.88-.27-1.73,0-1.14.27-2.16.27-3.33s-.13-2.44.33-3.46c.46-1.04,1.31-1.89,2.47-2.14,1.07-.24,1.91-.78,2.91-1.06.86-.24,1.83-1,2.81-1.05.99-.05,1.95-.8,2.93-.8"/>
  <path class="cls-2" d="m11.46,20.25c-1.02.11-1.35,2.29-1.92,2.87-.95.95-.31,2.75-1.01,3.79"/>
  <path class="cls-2" d="m15.19,23.97c-.15.02-.78,3.09-.8,3.46-.08,1.37-.8,2.89-.8,4.26"/>
  <path class="cls-2" d="m18.91,26.9c-.61,1.29-.8,3.36-.8,4.79,0,1.57.53,3.01.53,4.52"/>
  <path class="cls-2" d="m24.77,29.03c0,2.02-.37,4.47.27,6.39"/>
  <path class="cls-2" d="m26.1,29.03c1.81,0,2.3,2.77,2.66,4.14.3,1.11,1.07,2.06,1.32,3.18.18.82.01,1.18.01.13"/>
  <path class="cls-2" d="m30.62,28.23c.7.79,1.06,2.43,1.06,3.46s.53,2.11.53,3.19"/>
  <path class="cls-2" d="m34.08,26.9c.15,1.51,1.06,2.77,1.06,4.26,0,1.39-.27,2.62-.27,3.99"/>
  <path class="cls-2" d="m35.41,27.7c.41.05,2.05,2.47,2.34,2.93.5.82.73,1.6,1.12,2.4"/>
  <path class="cls-2" d="m31.69,17.32c.16-1.28,2.89-1.32,3.73-1.6"/>
  <path class="cls-2" d="m34.62,19.98c1.38,0,2.62-.53,3.99-.53s3.52-.84,4.79,0"/>
  <path class="cls-2" d="m9.6,18.39c-1.17,0-2.71.49-3.84.81-1,.29-1.48,1.43-1.48,2.38"/>
  <path class="cls-2" d="m10.13,15.46c.42.05.95.61,1.33.8"/>
  <path class="cls-2" d="m5.87,21.05c.2,1.79,2.59,3.08,3.87,4.13,1.42,1.16,2.96,2.07,4.51,2.93,2.85,1.58,6.07,3.59,9.58,3.59s7.26-.07,10.78-.27c.77-.04,1.32-.75,2.13-.8.79-.04,1.16-1,1.86-1.39.88-.49,1.58-1.71,2.34-2.4.71-.64.47-1.29.86-2.07"/>
  <path class="cls-2" d="m5.61,17.59c.28,2.51,5.05,5.23,7.05,6.12,2.67,1.18,5.78,2.4,8.65,2.4,1.33,0,2.39.44,3.46,1.01,1.48.78,3.03,1.01,4.66,1.38,1.55.34,3.04-.51,4.26-1.05,1.55-.69,3.29-1.32,4.92-1.86"/>
  <path class="cls-2" d="m13.86,28.5c2.58,2.29,6.05,1.71,9.18,2.41,1.55.34,3.12,1.05,4.72,1.05,1.97,0,4.64.33,6.33-.8"/>
  <path class="cls-2" d="m27.96,13.6c1.5,0,4,1.88,5.19,2.81,1.62,1.26,3.41,2.41,4.92,3.84,1.44,1.36,2.12,3.1,2.65,4.94.15.54-.73,2.24-1.05,2.65-.58.73-1.79.67-2.66.67"/>
  <path class="cls-2" d="m34.88,14.93c.94.12,2.56,2.23,2.93,3.06.37.83,1.56,2.52,2.4,2.79"/>
  <path class="cls-2" d="m19.71,13.33c-3.06,0-5.49,2.21-7.98,3.46"/>
  <path class="cls-1" d="m6.4,29.56c.74,0,.53.54.53-.13,0-.33-.14-1.55.47-.87.16.17.59,1.16.59,1.4,0,.73.3.55.74.99.74.74,1.43,1.43,2.13,2.13.3.3.84.51,1.24.74.53.3.63.7,1.08,1.06.88.71,1.52,1.06,2.66,1.06,1.06,0,1.94.53,2.91.81.45.13.68.52,1.21.52s1.2-.1,1.73.01c1.11.25,2.45.52,3.59.52,2.14,0,4.4-.27,6.65-.27.86,0,2.31-.46,2.99-1.01.44-.35,1.43.28,1.8-.19.29-.36,1.23-.32.67.13-.42.34-.31.94-.72,1.27-.24.19-1.09.33-1.4.33-1.19,0-2.35.27-3.59.27-2.41,0-4.6.27-7.05.27-.94,0-2.64.32-3.46-.13-.76-.42-2.13-.72-2.91-.95-.84-.24-1.81-1.32-2.68-1.32-1.23,0-2.49-.57-3.59-1.12-.73-.36-1.92-.68-2.45-1.21-.36-.36-.36-.71-.87-.99-.59-.33-1.08-.32-1.4-.93-.18-.33-.77-.87.07-.4.64.36,1.34.56,2,.87,1.22.58,2.9.86,4.26.86,1.62,0,3.21.8,4.81.8,1.44,0,3.01.48,4.38.78,1,.22,2.17.81,3.19.81.97,0,2.7.19,3.59.59,1.01.45,2.2.09,3.19.53,1.02.45,2.48.21,3.59.21,1.02,0,1.93-.53,2.93-.53.24,0,.91-.71,1.08-.53.3.3-.68.64-.68,1.06"/>
</svg>