<?xml version="1.0" encoding="UTF-8"?>
<svg id="Ebene_1" data-name="Ebene 1" xmlns="http://www.w3.org/2000/svg" viewBox="0 0 48 48">
  <path d="m32.69,27.9c-.45.73-1.03,1.43-1.71,1.96-.39.3-.71.52-1.21.59-.41.06-.94-.12-1.33.04-.18.07-.3.22-.48.3-.15.07-.36.09-.52.14-.25.08-.51.22-.77.26-.38.06-.7-.2-.97-.44-.29-.26-.55-.47-.85-.7-.61-.47-1.37-1.07-1.79-1.73-.22-.35-.09-.27-.44-.45-.16-.08-.31-.16-.47-.25-.49-.27-.87-.57-1.43-.58-1.4-.02-2.82.93-3.16,2.31-.19.78-.54,1.44-.54,2.25,0,.29.04.6,0,.89-.02.21-.13.37-.16.57-.03.22.02.42-.02.64-.16.82-.08,1.59.03,2.42s.39,1.56.15,2.42c-.1.35-.25.71-.29,1.07-.03.32,0,.66,0,.99,0,.74.29,1.37.28,2.1,0,.69.08,1.42-.03,2.1-.05.31-.19.59-.26.88-.1.47.18.85.17,1.3-.01.42-.4.62-.74.29-.23-.22-.36-.89-.45-1.19-.13-.4-.28-.87-.36-1.28-.09-.45-.03-.96-.03-1.42,0-2,.02-3.99.39-5.95.21-1.07.12-2.09.17-3.17.03-.58.15-1.09.15-1.68s-.05-1.22,0-1.82c.06-.85.3-1.69.29-2.55,0-.97,0-1.94.17-2.89.07-.38.15-.75.22-1.13s.07-.86.2-1.25c.06-.17.19-.32.26-.49.13-.31.16-.66.24-.98.14-.51.24-1.08.46-1.56.39-.87.74-1.71,1.03-2.62.15-.48.32-.93.5-1.4.22-.55.3-1.13.49-1.68.15-.44.45-.78.58-1.25.11-.37.18-.68.38-1.02.54-.91.94-1.9,1.43-2.85.22-.43.28-.87.45-1.32s.47-.79.65-1.21c.17-.39.25-.84.45-1.21.08-.15.23-.27.3-.43.13-.27.13-.54.27-.81.17-.36.35-.7.51-1.07.14-.33.16-.73.34-1.04.47-.82,1.39-1.29,2.27-1.43.34-.06.7-.05,1.05,0,.43.06.9.12,1.25.39.49.39,1.2,1.29.36,1.78-.75.43-1.57-.39-2.2-.65-.3-.13-.43,0-.72.02-.22.02-.47-.05-.69-.01-.44.08-.81.27-1.04.68-.18.33-.15.72.07,1.03s.63.29.97.29c.39,0,.76-.1,1.14-.14.34-.03.67-.4.99-.36.24.31-.38.84-.29,1.23.16.66.99,1,.57,1.8-.16.31-.52.51-.81.67-.27.15-.5.34-.77.49s-.57.29-.85.43c-.47.22-1.03.29-1.46.6-.52.38-1.05.86-1.4,1.4-.17.26-.42.44-.58.7-.19.32-.35.65-.56.96-.33.48-.5.92-.72,1.45-.23.58-.07,1,.04,1.57.22,1.1.25,2.21.39,3.31.07.57.3,1.08.29,1.67,0,.69.05,1.32.17,2,.18.98-.07,2.43.84,3.14.85.66,1.95,1.06,2.97,1.28.23.05.43.1.67.18.3.1.58.08.89.13.37.06.65.28,1,.37.24.06.46,0,.7.02.29.03.75.13.99.28.2.13.31.33.53.44.35.17,1.21.33,1.34.71"/>
</svg>